<svg id="Layer_1" enable-background="new 0 0 100 100" viewBox="0 0 100 100" xmlns="http://www.w3.org/2000/svg"><g><path d="m68.6178513 83.4300232h-37.2357045c-8.1670227 0-14.8121662-6.6451492-14.8121662-14.8121719v-37.2357045c0-8.1670227 6.6451435-14.8121662 14.8121662-14.8121662h37.2357025c8.1670227 0 14.8121719 6.6451435 14.8121719 14.8121662v37.2357025c.000002 8.1670247-6.6451472 14.8121739-14.8121699 14.8121739zm-37.2357045-62.8174896c-5.9384861 0-10.7696133 4.8311272-10.7696133 10.7696133v37.2357025c0 5.9384918 4.8311272 10.7696152 10.7696133 10.7696152h37.2357025c5.9384918 0 10.7696152-4.8311234 10.7696152-10.7696152v-37.2357026c0-5.9384861-4.8311234-10.7696133-10.7696152-10.7696133h-37.2357025z"/></g><g><g><path d="m33.2297211 20.6125336c-1.1162415 0-2.0212765-.905035-2.0212765-2.0212765v-14.0699806c0-1.1162419.905035-2.0212765 2.0212765-2.0212765s2.0212746.9050345 2.0212746 2.0212765v14.0699806c-.0000001 1.1162415-.9050332 2.0212765-2.0212746 2.0212765z"/></g><g><path d="m50 20.6125336c-1.1162415 0-2.0212784-.905035-2.0212784-2.0212765v-14.0699806c0-1.116242.9050369-2.0212765 2.0212784-2.0212765s2.0212784.9050345 2.0212784 2.0212765v14.0699806c0 1.1162415-.9050369 2.0212765-2.0212784 2.0212765z"/></g><g><path d="m66.7702789 20.6125336c-1.1162415 0-2.0212784-.905035-2.0212784-2.0212765v-14.0699806c0-1.116242.905037-2.0212765 2.0212784-2.0212765s2.0212784.9050345 2.0212784 2.0212765v14.0699806c0 1.1162415-.9050369 2.0212765-2.0212784 2.0212765z"/></g></g><g><g><path d="m18.5912571 68.7915573h-14.0699806c-1.116242 0-2.0212765-.9050369-2.0212765-2.0212784s.9050345-2.0212784 2.0212765-2.0212784h14.0699806c1.1162415 0 2.0212765.9050369 2.0212765 2.0212784s-.905035 2.0212784-2.0212765 2.0212784z"/></g><g><path d="m18.5912571 52.0212784h-14.0699806c-1.116242 0-2.0212765-.9050369-2.0212765-2.0212784s.9050345-2.0212784 2.0212765-2.0212784h14.0699806c1.1162415 0 2.0212765.9050369 2.0212765 2.0212784s-.905035 2.0212784-2.0212765 2.0212784z"/></g><g><path d="m18.5912571 35.2509956h-14.0699806c-1.116242 0-2.0212765-.9050331-2.0212765-2.0212745s.9050345-2.0212765 2.0212765-2.0212765h14.0699806c1.1162415 0 2.0212765.905035 2.0212765 2.0212765s-.905035 2.0212745-2.0212765 2.0212745z"/></g></g><g><g><path d="m66.7702789 97.5c-1.1162415 0-2.0212784-.9050369-2.0212784-2.0212784v-14.0699768c0-1.1162415.9050369-2.0212784 2.0212784-2.0212784s2.0212784.9050369 2.0212784 2.0212784v14.0699768c0 1.1162415-.9050369 2.0212784-2.0212784 2.0212784z"/></g><g><path d="m50 97.5c-1.1162415 0-2.0212784-.9050369-2.0212784-2.0212784v-14.0699768c0-1.1162415.9050369-2.0212784 2.0212784-2.0212784s2.0212784.9050369 2.0212784 2.0212784v14.0699768c0 1.1162415-.9050369 2.0212784-2.0212784 2.0212784z"/></g><g><path d="m33.2297211 97.5c-1.1162415 0-2.0212765-.9050369-2.0212765-2.0212784v-14.0699768c0-1.1162415.905035-2.0212784 2.0212765-2.0212784s2.0212746.9050369 2.0212746 2.0212784v14.0699768c-.0000001 1.1162415-.9050332 2.0212784-2.0212746 2.0212784z"/></g></g><g><g><path d="m95.4787216 35.2509956h-14.0699768c-1.1162415 0-2.0212784-.9050331-2.0212784-2.0212746s.9050369-2.0212765 2.0212784-2.0212765h14.0699768c1.1162415 0 2.0212784.905035 2.0212784 2.0212765s-.9050369 2.0212746-2.0212784 2.0212746z"/></g><g><path d="m95.4787216 52.0212784h-14.0699768c-1.1162415 0-2.0212784-.9050369-2.0212784-2.0212784s.9050369-2.0212784 2.0212784-2.0212784h14.0699768c1.1162415 0 2.0212784.9050369 2.0212784 2.0212784s-.9050369 2.0212784-2.0212784 2.0212784z"/></g><g><path d="m95.4787216 68.7915573h-14.0699768c-1.1162415 0-2.0212784-.9050369-2.0212784-2.0212784s.9050369-2.0212784 2.0212784-2.0212784h14.0699768c1.1162415 0 2.0212784.9050369 2.0212784 2.0212784s-.9050369 2.0212784-2.0212784 2.0212784z"/></g></g><g><path d="m66.0596771 68.0809479h-32.1193504c-1.1162415 0-2.0212784-.9050293-2.0212784-2.0212708v-32.1193504c0-1.1162415.9050369-2.0212784 2.0212784-2.0212784h32.1193504c1.1162415 0 2.0212708.9050369 2.0212708 2.0212784v32.1193504c0 1.1162415-.9050293 2.0212708-2.0212708 2.0212708zm-30.0980758-4.0425492h28.0767975v-28.0767974h-28.0767975z"/></g></svg>